<svg width="783" height="116" viewBox="0 0 783 116" fill="none" xmlns="http://www.w3.org/2000/svg">
<g clip-path="url(#clip0_433_424)">
<path d="M98.1625 30.569C94.4869 28.2242 89.3169 27.0518 82.5716 27.0518C75.8264 27.0518 71.141 28.4668 67.5058 31.3372C63.8707 34.2076 61.2453 38.6951 59.5892 44.8807C58.4179 38.776 55.9137 34.2884 52.0765 31.418C48.2394 28.5476 42.6251 27.0922 35.1931 27.0922C29.2557 27.0922 24.4088 28.3859 20.612 31.0137C16.8153 33.6416 14.3918 37.4419 13.3013 42.455L14.1091 28.7498H0.0126953V87.3709H13.3821V58.1816C13.3821 51.7131 14.8765 46.5787 17.8251 42.8188C20.7736 39.059 25.257 37.1993 31.1944 37.1993C35.4759 37.1993 38.7879 38.0079 41.1306 39.6654C43.4733 41.323 45.0889 43.6678 45.9775 46.7C46.8661 49.7321 47.3104 53.9366 47.3104 59.2328V87.3709H60.5586V60.769C60.5586 52.8046 62.0127 46.8617 64.9612 43.021C67.8694 39.1398 72.3931 37.1993 78.4922 37.1993C82.6928 37.1993 86.0049 38.0079 88.3475 39.6654C90.6902 41.323 92.3058 43.6678 93.1944 46.7C94.083 49.7321 94.5273 53.9366 94.5273 59.2328V87.3709H107.897V59.2328C107.897 51.5109 107.21 45.3658 105.796 40.8783C104.383 36.3907 101.838 32.9543 98.1625 30.6095V30.569Z" fill="#040507"/>
<path d="M149.863 76.6164C149.015 76.7377 148.086 76.7781 147.157 76.7781C141.664 76.7781 137.544 75.2014 134.797 72.048C132.333 69.218 131 65.2964 130.718 60.2429C126.598 55.8362 122.801 51.0656 119.449 45.8504C119.328 45.6482 119.206 45.4057 119.045 45.1631C117.833 48.9229 117.268 53.2488 117.268 58.1406C117.268 68.2881 119.812 75.9695 124.901 81.1848C129.95 86.3596 137.423 88.9875 147.278 88.9875C153.862 88.9875 159.395 87.7746 163.838 85.3893C159.032 82.6806 154.346 79.8102 149.863 76.6164V76.6164Z" fill="#040507"/>
<path d="M212.024 74.1909L196.312 28.709H182.983L203.583 87.3302H220.345L240.944 28.709H227.615L212.024 74.1909Z" fill="#040507"/>
<path d="M265.461 28.709H252.092V87.3302H265.461V28.709Z" fill="#040507"/>
<path d="M258.878 4.20898C256.373 4.20898 254.596 4.73455 253.506 5.86655C252.415 6.95811 251.85 8.73696 251.85 11.1627C251.85 13.5884 252.375 15.4481 253.506 16.5396C254.596 17.6312 256.414 18.1972 258.878 18.1972C261.341 18.1972 263.038 17.6716 264.088 16.5396C265.138 15.4481 265.663 13.6288 265.663 11.1627C265.663 8.69654 265.138 6.99854 264.088 5.86655C263.038 4.77498 261.301 4.20898 258.878 4.20898Z" fill="#040507"/>
<path d="M319.424 5.26074V41.9293C316.758 32.0243 311.022 27.0516 302.217 27.0516C296.441 27.0516 291.554 28.4262 287.515 31.0945C283.516 33.8032 280.487 37.4822 278.427 42.091C276.407 46.6998 275.397 51.8747 275.397 57.6559C275.397 63.4372 276.407 68.7333 278.427 73.5039C280.487 78.2744 283.516 82.0343 287.595 84.8238C291.635 87.5729 296.522 88.9879 302.217 88.9879C311.022 88.9879 316.758 83.894 319.424 73.7869V87.3304H332.793V5.26074H319.424ZM315.829 71.1994C313.405 74.1507 309.851 75.6061 305.166 75.6061C299.753 75.6061 295.674 74.1103 292.927 71.159C290.14 68.1673 288.767 63.8415 288.767 58.1411C288.767 52.4407 290.14 47.9531 292.927 44.9614C295.674 41.9293 299.753 40.4334 305.166 40.4334C309.851 40.4334 313.405 41.9293 315.829 44.9614C318.212 47.9531 319.424 52.3598 319.424 58.1411C319.424 63.9223 318.212 68.2886 315.829 71.1994V71.1994Z" fill="#040507"/>
<path d="M386.19 28.7093V43.1018C385.382 40.0697 384.332 37.361 382.918 35.097C379.566 29.7605 374.355 27.0518 367.246 27.0518C361.39 27.0518 356.462 28.305 352.463 30.8116C348.505 33.3182 345.476 36.8759 343.456 41.4847C341.437 46.0935 340.427 51.5514 340.427 57.7773C340.427 64.0033 341.396 69.5016 343.375 74.1913C345.395 78.881 348.384 82.5195 352.423 85.1069C356.422 87.6944 361.349 88.9881 367.125 88.9881C374.315 88.9881 379.566 86.1985 382.918 80.7002C384.332 78.3958 385.382 75.6063 386.19 72.4933V87.3305H399.559V28.7093H386.19ZM382.11 71.1996C379.364 74.1508 375.405 75.6063 370.154 75.6063C364.904 75.6063 360.582 74.1104 357.795 71.1591C355.048 68.1674 353.635 63.8012 353.635 58.0199C353.635 52.2386 355.048 47.8724 357.795 44.8807C360.582 41.9294 364.661 40.4336 370.033 40.4336C375.405 40.4336 379.364 41.9294 382.11 44.9615C384.857 47.9532 386.19 52.3599 386.19 58.1412C386.19 63.9225 384.857 68.2887 382.11 71.1996V71.1996Z" fill="#040507"/>
<path d="M452.956 28.7093V42.0507C450.33 32.0649 444.595 27.0518 435.749 27.0518C429.973 27.0518 425.086 28.4263 421.047 31.0946C417.048 33.8033 414.019 37.4823 411.959 42.0911C409.939 46.7 408.93 51.8748 408.93 57.6561C408.93 63.4373 409.939 68.7334 411.959 73.504C414.019 78.2745 417.048 82.0344 421.128 84.8239C425.167 87.5731 430.054 88.9881 435.749 88.9881C444.676 88.9881 450.452 83.7728 453.077 73.3827V84.9856C453.158 90.7669 452.108 95.0119 449.886 97.761C447.624 100.51 444.312 101.885 439.869 101.885C435.184 101.885 431.589 100.955 429.125 99.176C426.661 97.3567 425.45 94.8097 425.45 91.4138H412.201C412.201 99.2569 414.544 105.159 419.229 109.202C423.915 113.205 430.781 115.226 439.869 115.226C448.957 115.226 455.218 112.72 459.661 107.747C464.104 102.734 466.325 95.1332 466.325 84.9856V28.7093H452.956ZM449.361 71.1996C446.938 74.1508 443.383 75.6063 438.698 75.6063C433.285 75.6063 429.206 74.1104 426.459 71.1591C423.672 68.1674 422.299 63.8416 422.299 58.1412C422.299 52.4408 423.672 47.9532 426.459 44.9615C429.206 41.9294 433.285 40.4336 438.698 40.4336C443.383 40.4336 446.938 41.9294 449.361 44.9615C451.744 47.9532 452.956 52.3599 452.956 58.1412C452.956 63.9224 451.744 68.2887 449.361 71.1996V71.1996Z" fill="#040507"/>
<path d="M476.867 28.7093V87.3305H490.237V60.486C490.237 55.7155 490.923 51.6726 492.296 48.3979C493.67 45.1232 495.528 42.6571 497.87 40.9996C500.213 39.342 502.919 38.5334 505.949 38.5334C507.968 38.5334 509.947 38.8973 511.846 39.6654C513.744 40.3931 515.319 41.2826 516.491 42.2933V30.4477C514.39 28.1838 511.684 27.0518 508.412 27.0518C503.04 27.0518 498.961 28.7498 496.214 32.1457C493.468 35.5417 491.489 39.4633 490.237 43.9104L491.044 28.6689H476.867V28.7093Z" fill="#040507"/>
<path d="M568.514 0.207031H556.922L550.823 20.2595H557.488L568.514 0.207031Z" fill="#040507"/>
<path d="M565.848 28.7093V43.1018C565 40.0697 563.95 37.361 562.536 35.097C559.184 29.7605 553.973 27.0518 546.864 27.0518C541.008 27.0518 536.08 28.305 532.081 30.8116C528.123 33.3182 525.094 36.8759 523.074 41.4847C521.055 46.0935 520.045 51.5514 520.045 57.7773C520.045 64.0033 521.014 69.5016 523.034 74.1913C525.013 78.881 528.002 82.5195 532.041 85.1069C536.08 87.6944 540.967 88.9881 546.743 88.9881C553.933 88.9881 559.184 86.1985 562.536 80.7002C563.95 78.3958 565 75.6063 565.848 72.4933V87.3305H579.177V28.7093H565.848ZM561.728 71.1996C558.982 74.1508 555.023 75.6063 549.773 75.6063C544.522 75.6063 540.2 74.1104 537.413 71.1591C534.666 68.1674 533.253 63.8012 533.253 58.0199C533.253 52.2386 534.666 47.8724 537.413 44.8807C540.2 41.9294 544.279 40.4336 549.651 40.4336C555.023 40.4336 558.982 41.9294 561.728 44.9615C564.475 47.9532 565.848 52.3599 565.848 58.1412C565.848 63.9225 564.475 68.2887 561.728 71.1996Z" fill="#040507"/>
<path d="M611.732 87.3304V40.9994H627.646V29.7603H611.732C611.732 24.6664 611.974 21.3108 612.419 19.6937C612.903 18.0361 614.075 17.0254 615.933 16.5807C617.791 16.136 621.709 15.9338 627.646 15.9338V5.26074C618.881 5.26074 612.701 5.54374 609.026 6.15017C605.35 6.71616 602.644 8.3333 600.948 10.9611C599.211 13.589 598.363 18.0765 598.363 24.5047V29.7603H589.679V40.9994H598.363V87.3304H611.732Z" fill="#040507"/>
<path d="M650.79 5.82651C649.74 4.73494 648.003 4.16895 645.58 4.16895C643.156 4.16895 641.298 4.69451 640.208 5.82651C639.117 6.91808 638.552 8.69693 638.552 11.1226C638.552 13.5483 639.077 15.408 640.208 16.4996C641.298 17.5912 643.116 18.1572 645.58 18.1572C648.044 18.1572 649.74 17.6316 650.79 16.4996C651.84 15.408 652.365 13.5888 652.365 11.1226C652.365 8.6565 651.84 6.9585 650.79 5.82651V5.82651Z" fill="#040507"/>
<path d="M652.163 28.709H638.794V87.3302H652.163V28.709Z" fill="#040507"/>
<path d="M692.191 38.8969C696.715 38.8969 700.471 39.665 703.5 41.2013C706.489 42.7376 708.711 44.9611 710.124 47.9528L719.132 42.4546C716.789 37.4415 713.315 33.6412 708.751 31.0133C704.187 28.3855 698.653 27.0918 692.191 27.0918C682.255 27.0918 674.782 29.6792 669.693 34.8945C664.604 40.1097 662.1 47.7911 662.1 57.9387C662.1 68.0862 664.604 75.9293 669.653 81.1446C674.702 86.4002 682.214 88.9877 692.191 88.9877C698.653 88.9877 704.187 87.694 708.751 85.0661C713.315 82.4383 716.789 78.5976 719.132 73.5036L710.003 68.2479C708.67 71.1183 706.489 73.3419 703.5 74.8782C700.511 76.4144 696.715 77.1826 692.191 77.1826C686.173 77.1826 681.649 75.6059 678.66 72.4929C675.671 69.3799 674.136 64.4881 674.136 57.8578C674.136 51.9148 675.671 47.2656 678.781 43.9504C681.851 40.6353 686.334 38.9777 692.191 38.9777V38.8969Z" fill="#040507"/>
<path d="M769.055 28.7093V43.1018C768.247 40.0697 767.197 37.361 765.784 35.097C762.431 29.7605 757.18 27.0518 750.071 27.0518C744.215 27.0518 739.287 28.305 735.329 30.8116C731.33 33.3182 728.341 36.8759 726.322 41.4847C724.262 46.0935 723.252 51.5514 723.252 57.7773C723.252 64.0033 724.262 69.5016 726.241 74.1913C728.22 78.881 731.249 82.5195 735.248 85.1069C739.287 87.6944 744.174 88.9881 749.95 88.9881C757.14 88.9881 762.431 86.1985 765.784 80.7002C767.197 78.3958 768.247 75.6063 769.055 72.4933V87.3305H782.425V28.7093H769.055ZM764.976 71.1996C762.229 74.1508 758.23 75.6063 753.02 75.6063C747.527 75.6063 743.407 74.1104 740.66 71.1591C737.873 68.1674 736.5 63.8012 736.5 58.0199C736.5 52.2386 737.873 47.8724 740.66 44.8807C743.407 41.9294 747.486 40.4336 752.899 40.4336C758.311 40.4336 762.229 41.9294 764.976 44.9615C767.682 47.9532 769.055 52.3599 769.055 58.1412C769.055 63.9225 767.682 68.2887 764.976 71.1996V71.1996Z" fill="#040507"/>
<path d="M184.438 64.7309C185.528 68.4908 187.426 73.5443 187.588 77.8298C187.709 79.366 187.588 80.8619 187.063 82.1152C186.578 82.8024 186.215 82.8429 185.084 82.8429C180.964 82.2364 177.086 79.7703 173.411 77.5063C173.168 77.3446 172.967 77.1829 172.724 77.0616C175.673 72.2102 177.167 65.9034 177.167 58.1411C177.167 47.9936 174.623 40.2718 169.574 34.9756C164.484 29.72 157.012 27.0517 147.197 27.0517C137.382 27.0517 130.395 29.5582 125.346 34.5714C125.305 34.4501 125.225 34.3692 125.144 34.2479C121.347 28.4262 118.762 23.5748 117.591 20.0576H117.55C117.106 18.7639 116.823 17.6319 116.823 16.702C116.54 11.6485 122.195 12.1336 136.009 20.6236C131.162 16.2169 119.368 4.85649 113.35 12.7805C112.421 14.721 112.178 16.702 112.299 18.683C112.542 22.1598 113.955 25.5963 115.086 28.7092C116.783 32.7521 118.722 36.7545 120.983 40.5143C122.074 42.4953 123.326 44.3955 124.659 46.2147C126.638 48.7617 128.739 51.2279 130.96 53.6131C138.311 61.6988 146.712 68.9355 155.841 74.9189C159.92 77.6276 164.121 80.0533 168.443 82.196C172.078 84.0153 175.794 85.6729 179.591 87.0879C184.034 88.1794 186.982 87.856 188.8 86.6836C194.414 83.045 189.365 70.9973 184.478 64.7309H184.438ZM161.374 69.2589C151.438 62.2244 141.825 54.5026 133.747 45.4466C134.07 44.9615 134.434 44.5168 134.797 44.072C137.544 40.8782 141.664 39.2611 147.157 39.2611C152.65 39.2611 156.729 40.8782 159.516 44.072C162.263 47.2659 163.677 51.9556 163.677 58.1411C163.677 62.6691 162.909 66.3481 161.374 69.2589V69.2589Z" fill="#040507"/>
</g>
<defs>
<clipPath id="clip0_433_424">
<rect width="782.412" height="115.019" fill="white" transform="translate(0.0126953 0.207031)"/>
</clipPath>
</defs>
</svg>
