<svg width="81" height="30" viewBox="0 0 81 30" fill="none" xmlns="http://www.w3.org/2000/svg">
<g clip-path="url(#clip0_426_173)">
<path d="M0 6.92458H6.91617L6.60721 12.0182C6.98663 10.1597 7.87554 8.74565 9.27395 7.7762C10.6669 6.80138 12.499 6.31934 14.7592 6.31934C17.6373 6.31934 19.7891 6.84959 21.2146 7.9101C22.6401 8.97061 23.5724 10.631 24.0115 12.8966C24.5968 10.631 25.5779 8.97061 26.9438 7.9101C28.3097 6.84959 30.1796 6.31934 32.5591 6.31934C35.2909 6.31934 37.356 6.79067 38.749 7.73335C40.1419 8.67602 41.0742 10.0418 41.5458 11.8254C42.0173 13.609 42.2504 16.0835 42.2504 19.249V28.6971H35.6432V19.249C35.6432 17.219 35.5185 15.6497 35.2692 14.5463C35.0199 13.443 34.5049 12.5806 33.7299 11.954C32.9493 11.3273 31.784 11.0166 30.2284 11.0166C28.2013 11.0166 26.7324 11.7076 25.8218 13.0841C24.9112 14.4606 24.4559 16.6191 24.4559 19.5489V28.6918H17.8053V19.2436C17.8053 17.2137 17.6861 15.6443 17.453 14.541C17.22 13.4376 16.7105 12.5753 15.9354 11.9486C15.1549 11.3219 13.9895 11.0113 12.4339 11.0113C10.4935 11.0113 9.04088 11.6647 8.07067 12.9716C7.10045 14.2785 6.61806 15.9764 6.61806 18.0653V28.6864H0V6.92458Z" fill="#040507"/>
<path d="M56.6352 23.4157C55.0959 23.3782 53.9143 22.9069 53.1012 22.0071C52.4887 21.3268 52.0931 20.4163 51.925 19.2755C50.8085 18.156 49.7515 16.9777 48.7705 15.7404C47.8436 14.4871 47.0523 13.2927 46.2989 11.9697C45.578 13.5873 45.2148 15.5476 45.2148 17.8507C45.2148 21.6214 46.2013 24.4762 48.1689 26.4044C50.1364 28.338 53.0308 29.3021 56.8466 29.3021C59.4971 29.3021 61.7031 28.8361 63.4592 27.8988C61.0798 26.5651 58.7924 25.0708 56.6352 23.4157V23.4157Z" fill="#040507"/>
<path d="M46.4349 4.2626C46.3102 3.87696 46.2235 3.51274 46.1855 3.18066L46.4349 4.2626Z" fill="#040507"/>
<path d="M71.2055 20.5556C71.6012 21.6643 71.9589 22.7784 72.1974 23.8978C72.3058 24.4227 72.4305 25.0494 72.4467 25.6439C72.463 26.1152 72.4142 26.5651 72.2353 26.924C72.1432 27.074 72.0565 27.1436 71.9372 27.1864C71.7855 27.2293 71.6337 27.2454 71.4765 27.2347C71.0104 27.2347 70.5171 27.0365 70.0239 26.8597C69.0266 26.4687 68.0347 25.9063 67.0753 25.3065C66.9344 25.2154 66.7935 25.1243 66.6525 25.0333C67.8721 23.2069 68.4791 20.8127 68.4791 17.8508C68.4791 14.0801 67.4872 11.2092 65.5035 9.25421C63.5251 7.29388 60.6199 6.31371 56.804 6.31371C53.3514 6.31371 50.6575 7.11713 48.7171 8.74003C47.774 7.26174 46.8688 5.62813 46.4352 4.26232C46.3106 3.87669 46.2238 3.51247 46.1859 3.18039V3.16968C46.1479 2.84831 46.1588 2.55373 46.2184 2.29663C47.1724 0.641599 52.0668 3.73207 53.3189 4.48728C51.4977 2.86438 49.7253 1.19863 47.1561 0.711228C45.2374 0.470204 44.4731 2.18951 44.6682 3.72136C44.6682 3.74814 44.6737 3.78028 44.6791 3.80706C44.8308 5.11395 45.2319 6.28158 45.6981 7.401C46.1371 8.42937 46.6249 9.44703 47.1561 10.4379C47.774 11.5895 48.4624 12.7035 49.232 13.7426C50.0613 14.8246 50.9448 15.8529 51.8771 16.8385C54.0614 19.1416 56.5005 21.1876 59.1022 23.014C61.0372 24.3798 63.0589 25.6225 65.1349 26.758C65.4167 26.9133 65.6986 27.0686 65.9804 27.2186C69.3193 28.9593 71.5741 29.2218 72.7394 28.4666C74.3763 27.4114 73.8722 24.3531 71.2055 20.5556ZM61.0806 21.2037C58.1212 19.0345 55.2972 16.6671 52.7931 14.0211C52.8907 13.8819 52.9937 13.748 53.1021 13.6248C53.953 12.6714 55.2051 12.1894 56.8474 12.1894C58.4897 12.1894 59.6876 12.6714 60.5277 13.6248C61.3624 14.5835 61.7798 15.9922 61.7798 17.8508C61.7798 19.2112 61.5467 20.3306 61.0806 21.2037Z" fill="#040507"/>
</g>
<path d="M74.7383 3.46439H73.6768V2.83594H76.5363V3.46439H75.4748V6.41248H74.7383V3.46439Z" fill="#040507"/>
<path d="M78.9658 5.79936L79.6565 2.83594H80.8298V6.41248H80.0934V3.6381L79.4331 6.41248H78.4731L77.8331 3.61256V6.41248H77.0967V2.83594H78.2699L78.9658 5.79936Z" fill="#040507"/>
<defs>
<clipPath id="clip0_426_173">
<rect width="73.6767" height="28.6123" fill="white" transform="translate(0 0.689941)"/>
</clipPath>
</defs>
</svg>
