<svg width="512" height="512" viewBox="0 0 512 512" fill="none" xmlns="http://www.w3.org/2000/svg">
<g clip-path="url(#clip0_368_523)">
<path d="M0.974609 205.066H44.6169L42.6674 237.208C45.0615 225.48 50.6707 216.558 59.4949 210.44C68.285 204.289 79.8454 201.247 94.1078 201.247C112.269 201.247 125.848 204.593 134.843 211.285C143.838 217.977 149.721 228.455 152.491 242.751C156.185 228.455 162.376 217.977 170.995 211.285C179.614 204.593 191.414 201.247 206.429 201.247C223.667 201.247 236.698 204.222 245.488 210.17C254.278 216.118 260.161 224.737 263.136 235.992C266.112 247.246 267.582 262.861 267.582 282.836V342.455H225.89V282.836C225.89 270.026 225.103 260.123 223.53 253.161C221.956 246.199 218.707 240.757 213.816 236.803C208.891 232.848 201.538 230.888 191.721 230.888C178.93 230.888 169.661 235.248 163.915 243.934C158.169 252.62 155.296 266.241 155.296 284.728V342.422H113.33V282.802C113.33 269.992 112.577 260.09 111.106 253.127C109.636 246.165 106.421 240.723 101.53 236.769C96.6046 232.815 89.251 230.854 79.435 230.854C67.1905 230.854 58.0242 234.978 51.902 243.224C45.7798 251.471 42.7358 262.185 42.7358 275.366V342.388H0.974609V205.066Z" fill="white"/>
<path d="M358.355 309.131C348.642 308.894 341.186 305.92 336.056 300.242C332.191 295.949 329.694 290.204 328.634 283.005C321.588 275.941 314.918 268.505 308.728 260.698C302.879 252.789 297.886 245.252 293.131 236.904C288.583 247.111 286.291 259.481 286.291 274.015C286.291 297.808 292.516 315.823 304.931 327.99C317.347 340.191 335.611 346.275 359.689 346.275C376.414 346.275 390.335 343.334 401.416 337.42C386.401 329.004 371.968 319.574 358.355 309.131V309.131Z" fill="white"/>
<path d="M293.986 188.269C293.2 185.835 292.653 183.537 292.413 181.442L293.986 188.269Z" fill="white"/>
<path d="M450.292 291.082C452.789 298.079 455.046 305.109 456.551 312.172C457.235 315.485 458.022 319.439 458.124 323.191C458.227 326.165 457.919 329.004 456.79 331.268C456.209 332.215 455.662 332.654 454.909 332.924C453.952 333.195 452.994 333.296 452.002 333.229C449.061 333.229 445.948 331.978 442.836 330.863C436.543 328.395 430.284 324.847 424.23 321.061C423.34 320.487 422.451 319.912 421.562 319.338C429.257 307.812 433.088 292.705 433.088 274.014C433.088 250.221 426.829 232.105 414.311 219.769C401.827 207.399 383.495 201.214 359.416 201.214C337.629 201.214 320.631 206.283 308.386 216.524C302.435 207.196 296.723 196.887 293.987 188.269C293.2 185.835 292.653 183.537 292.414 181.442V181.374C292.174 179.346 292.243 177.487 292.619 175.865C298.638 165.421 329.523 184.923 337.424 189.688C325.932 179.448 314.748 168.936 298.536 165.861C286.428 164.34 281.606 175.189 282.837 184.855C282.837 185.024 282.871 185.227 282.905 185.396C283.863 193.643 286.394 201.011 289.335 208.075C292.106 214.564 295.184 220.985 298.536 227.238C302.435 234.505 306.779 241.535 311.635 248.091C316.868 254.919 322.443 261.408 328.326 267.627C342.11 282.16 357.501 295.071 373.918 306.596C386.128 315.214 398.886 323.055 411.985 330.221C413.764 331.201 415.542 332.181 417.321 333.127C438.39 344.112 452.618 345.768 459.971 341.002C470.3 334.344 467.12 315.045 450.292 291.082ZM386.402 295.172C367.727 281.484 349.908 266.545 334.106 249.849C334.722 248.97 335.372 248.125 336.056 247.348C341.426 241.332 349.326 238.29 359.69 238.29C370.053 238.29 377.612 241.332 382.913 247.348C388.18 253.398 390.814 262.287 390.814 274.014C390.814 282.599 389.343 289.663 386.402 295.172Z" fill="white"/>
</g>
<path d="M472.586 183.232H465.888V179.267H483.932V183.232H477.234V201.835H472.586V183.232Z" fill="white"/>
<path d="M499.262 197.966L503.621 179.267H511.025V201.835H506.378V184.328L502.211 201.835H496.154L492.115 184.167V201.835H487.468V179.267H494.872L499.262 197.966Z" fill="white"/>
<defs>
<clipPath id="clip0_368_523">
<rect width="464.913" height="180.549" fill="white" transform="translate(0.974609 165.726)"/>
</clipPath>
</defs>
</svg>
