<svg width="588" height="83" viewBox="0 0 588 83" fill="none" xmlns="http://www.w3.org/2000/svg">
<g clip-path="url(#clip0_74_463)">
<path d="M69.1203 23.3818C66.5319 21.7304 62.891 20.9048 58.1407 20.9048C53.3905 20.9048 50.0909 21.9013 47.5309 23.9227C44.9709 25.9442 43.122 29.1044 41.9558 33.4605C41.1309 29.1614 39.3673 26.0011 36.6651 23.9797C33.9628 21.9582 30.009 20.9333 24.7752 20.9333C20.5939 20.9333 17.1805 21.8443 14.5067 23.6949C11.8329 25.5456 10.1263 28.2218 9.35827 31.7522L9.92716 22.1006H0V63.3835H9.41516V42.8275C9.41516 38.2721 10.4676 34.6563 12.5441 32.0085C14.6205 29.3607 17.7779 28.051 21.9592 28.051C24.9743 28.051 27.3068 28.6204 28.9566 29.7877C30.6064 30.955 31.7442 32.6064 32.3699 34.7417C32.9957 36.877 33.3086 39.838 33.3086 43.5677V63.3835H42.6384V44.6496C42.6384 39.0408 43.6624 34.8556 45.7389 32.1508C47.7869 29.4176 50.9727 28.051 55.2678 28.051C58.2261 28.051 60.5585 28.6204 62.2083 29.7877C63.8581 30.955 64.9959 32.6064 65.6217 34.7417C66.2474 36.877 66.5603 39.838 66.5603 43.5677V63.3835H75.9755V43.5677C75.9755 38.1297 75.4919 33.8021 74.4964 30.6419C73.5008 27.4816 71.7088 25.0616 69.1203 23.4102V23.3818Z" fill="white"/>
<path d="M105.529 55.8101C104.932 55.8955 104.277 55.924 103.623 55.924C99.7547 55.924 96.8534 54.8136 94.9192 52.5929C93.184 50.5999 92.2454 47.8382 92.0463 44.2794C89.1449 41.176 86.4711 37.8164 84.1102 34.1437C84.0249 34.0013 83.9396 33.8305 83.8258 33.6597C82.9724 36.3075 82.5742 39.3539 82.5742 42.7989C82.5742 49.9451 84.3662 55.3546 87.9502 59.0273C91.5058 62.6716 96.7681 64.5222 103.709 64.5222C108.345 64.5222 112.242 63.6681 115.371 61.9883C111.986 60.0808 108.686 58.0593 105.529 55.8101Z" fill="white"/>
<path d="M149.305 54.1019L138.24 22.072H128.854L143.36 63.355H155.165L169.671 22.072H160.285L149.305 54.1019Z" fill="white"/>
<path d="M186.938 22.072H177.522V63.355H186.938V22.072Z" fill="white"/>
<path d="M182.301 4.8186C180.537 4.8186 179.286 5.18873 178.518 5.98591C177.75 6.75463 177.352 8.00736 177.352 9.71562C177.352 11.4239 177.721 12.7335 178.518 13.5023C179.286 14.271 180.566 14.6696 182.301 14.6696C184.036 14.6696 185.231 14.2994 185.97 13.5023C186.71 12.7335 187.08 11.4523 187.08 9.71562C187.08 7.97888 186.71 6.7831 185.97 5.98591C185.231 5.2172 184.008 4.8186 182.301 4.8186Z" fill="white"/>
<path d="M224.94 5.55884V31.382C223.063 24.4066 219.024 20.9047 212.823 20.9047C208.755 20.9047 205.313 21.8727 202.469 23.7518C199.653 25.6594 197.52 28.2502 196.069 31.4959C194.647 34.7416 193.936 38.3859 193.936 42.4573C193.936 46.5286 194.647 50.2583 196.069 53.6179C197.52 56.9775 199.653 59.6253 202.526 61.5898C205.37 63.5258 208.812 64.5223 212.823 64.5223C219.024 64.5223 223.063 60.9349 224.94 53.8172V63.355H234.355V5.55884H224.94ZM222.409 51.995C220.702 54.0734 218.199 55.0984 214.899 55.0984C211.088 55.0984 208.215 54.0449 206.28 51.9666C204.318 49.8597 203.351 46.8133 203.351 42.7989C203.351 38.7845 204.318 35.6242 206.28 33.5174C208.215 31.382 211.088 30.3286 214.899 30.3286C218.199 30.3286 220.702 31.382 222.409 33.5174C224.087 35.6242 224.94 38.7276 224.94 42.7989C224.94 46.8703 224.087 49.9451 222.409 51.995Z" fill="white"/>
<path d="M271.958 22.0721V32.2078C271.389 30.0724 270.65 28.1649 269.654 26.5705C267.293 22.8123 263.624 20.9048 258.618 20.9048C254.493 20.9048 251.023 21.7874 248.207 23.5526C245.419 25.3178 243.286 27.8232 241.864 31.0689C240.442 34.3146 239.73 38.1582 239.73 42.5427C239.73 46.9273 240.413 50.7993 241.807 54.102C243.229 57.4046 245.334 59.967 248.179 61.7891C250.995 63.6113 254.465 64.5224 258.532 64.5224C263.595 64.5224 267.293 62.5579 269.654 58.6858C270.65 57.063 271.389 55.0985 271.958 52.9062V63.355H281.373V22.0721H271.958ZM269.085 51.9951C267.151 54.0735 264.363 55.0985 260.666 55.0985C256.968 55.0985 253.924 54.045 251.962 51.9666C250.027 49.8598 249.032 46.7849 249.032 42.7136C249.032 38.6422 250.027 35.5674 251.962 33.4605C253.924 31.3821 256.797 30.3287 260.58 30.3287C264.363 30.3287 267.151 31.3821 269.085 33.5174C271.02 35.6243 271.958 38.7276 271.958 42.799C271.958 46.8703 271.02 49.9452 269.085 51.9951Z" fill="white"/>
<path d="M318.977 22.0721V31.4675C317.128 24.4352 313.089 20.9048 306.86 20.9048C302.792 20.9048 299.35 21.8728 296.506 23.7519C293.69 25.6594 291.557 28.2503 290.106 31.496C288.684 34.7417 287.973 38.386 287.973 42.4573C287.973 46.5287 288.684 50.2584 290.106 53.618C291.557 56.9775 293.69 59.6253 296.563 61.5898C299.407 63.5259 302.849 64.5224 306.86 64.5224C313.146 64.5224 317.214 60.8496 319.063 53.5326V61.7037C319.119 65.7751 318.38 68.7645 316.815 70.7006C315.223 72.6366 312.89 73.6046 309.761 73.6046C306.462 73.6046 303.93 72.9498 302.195 71.697C300.46 70.4159 299.607 68.6222 299.607 66.2306H290.277C290.277 71.754 291.926 75.9108 295.226 78.7579C298.526 81.5765 303.361 83 309.761 83C316.161 83 320.57 81.2348 323.699 77.7329C326.828 74.2025 328.392 68.8499 328.392 61.7037V22.0721H318.977ZM316.446 51.9951C314.739 54.0735 312.236 55.0985 308.936 55.0985C305.125 55.0985 302.252 54.045 300.318 51.9666C298.355 49.8598 297.388 46.8134 297.388 42.799C297.388 38.7846 298.355 35.6243 300.318 33.5174C302.252 31.3821 305.125 30.3287 308.936 30.3287C312.236 30.3287 314.739 31.3821 316.446 33.5174C318.124 35.6243 318.977 38.7276 318.977 42.799C318.977 46.8703 318.124 49.9452 316.446 51.9951Z" fill="white"/>
<path d="M335.816 22.0721V63.355H345.232V44.4503C345.232 41.0907 345.715 38.2436 346.682 35.9375C347.649 33.6313 348.958 31.8946 350.608 30.7273C352.257 29.56 354.163 28.9905 356.297 28.9905C357.719 28.9905 359.113 29.2468 360.449 29.7877C361.786 30.3002 362.896 30.9266 363.721 31.6384V23.2963C362.241 21.702 360.336 20.9048 358.032 20.9048C354.249 20.9048 351.376 22.1006 349.441 24.4921C347.507 26.8837 346.113 29.6454 345.232 32.7772L345.8 22.0436H335.816V22.0721Z" fill="white"/>
<path d="M400.357 2H392.194L387.898 16.1216H392.592L400.357 2Z" fill="white"/>
<path d="M398.48 22.0721V32.2078C397.882 30.0724 397.143 28.1649 396.147 26.5705C393.786 22.8123 390.117 20.9048 385.111 20.9048C380.986 20.9048 377.516 21.7874 374.7 23.5526C371.913 25.3178 369.779 27.8232 368.357 31.0689C366.935 34.3146 366.224 38.1582 366.224 42.5427C366.224 46.9273 366.906 50.7993 368.329 54.102C369.722 57.4046 371.827 59.967 374.672 61.7891C377.516 63.6113 380.958 64.5224 385.026 64.5224C390.089 64.5224 393.786 62.5579 396.147 58.6858C397.143 57.063 397.882 55.0985 398.48 52.9062V63.355H407.866V22.0721H398.48ZM395.578 51.9951C393.644 54.0735 390.857 55.0985 387.159 55.0985C383.461 55.0985 380.417 54.045 378.455 51.9666C376.521 49.8598 375.525 46.7849 375.525 42.7136C375.525 38.6422 376.521 35.5674 378.455 33.4605C380.417 31.3821 383.29 30.3287 387.074 30.3287C390.857 30.3287 393.644 31.3821 395.578 33.5174C397.513 35.6243 398.48 38.7276 398.48 42.799C398.48 46.8703 397.513 49.9452 395.578 51.9951Z" fill="white"/>
<path d="M430.793 63.355V30.7272H442.001V22.8123H430.793C430.793 19.2249 430.964 16.8618 431.277 15.723C431.618 14.5557 432.443 13.8439 433.752 13.5307C435.06 13.2175 437.819 13.0752 442.001 13.0752V5.55884C435.828 5.55884 431.476 5.75813 428.888 6.1852C426.299 6.58379 424.393 7.72263 423.199 9.57325C421.976 11.4239 421.378 14.5841 421.378 19.111V22.8123H415.263V30.7272H421.378V63.355H430.793Z" fill="white"/>
<path d="M458.299 5.95735C457.56 5.18863 456.337 4.79004 454.63 4.79004C452.923 4.79004 451.615 5.16016 450.847 5.95735C450.079 6.72607 449.681 7.97879 449.681 9.68705C449.681 11.3953 450.05 12.705 450.847 13.4737C451.615 14.2424 452.895 14.641 454.63 14.641C456.365 14.641 457.56 14.2709 458.299 13.4737C459.039 12.705 459.409 11.4238 459.409 9.68705C459.409 7.95032 459.039 6.75454 458.299 5.95735Z" fill="white"/>
<path d="M459.266 22.072H449.851V63.355H459.266V22.072Z" fill="white"/>
<path d="M487.455 29.2466C490.641 29.2466 493.286 29.7876 495.419 30.8695C497.524 31.9514 499.089 33.5173 500.084 35.6241L506.427 31.7521C504.778 28.2217 502.331 25.5454 499.117 23.6948C495.903 21.8442 492.006 20.9331 487.455 20.9331C480.458 20.9331 475.195 22.7552 471.611 26.428C468.027 30.1008 466.264 35.5103 466.264 42.6565C466.264 49.8027 468.027 55.3261 471.583 58.9988C475.138 62.7001 480.429 64.5222 487.455 64.5222C492.006 64.5222 495.903 63.6111 499.117 61.7605C502.331 59.9099 504.778 57.2052 506.427 53.6178L499.999 49.9166C499.06 51.938 497.524 53.5039 495.419 54.5858C493.314 55.6677 490.641 56.2087 487.455 56.2087C483.217 56.2087 480.031 55.0983 477.926 52.906C475.821 50.7138 474.74 47.2688 474.74 42.5995C474.74 38.4143 475.821 35.1401 478.011 32.8055C480.173 30.4709 483.33 29.3036 487.455 29.3036V29.2466Z" fill="white"/>
<path d="M541.585 22.0721V32.2078C541.016 30.0724 540.277 28.1649 539.281 26.5705C536.92 22.8123 533.223 20.9048 528.216 20.9048C524.092 20.9048 520.622 21.7874 517.834 23.5526C515.018 25.3178 512.913 27.8232 511.491 31.0689C510.04 34.3146 509.329 38.1582 509.329 42.5427C509.329 46.9273 510.04 50.7993 511.434 54.102C512.828 57.4046 514.961 59.967 517.777 61.7891C520.622 63.6113 524.063 64.5224 528.131 64.5224C533.194 64.5224 536.92 62.5579 539.281 58.6858C540.277 57.063 541.016 55.0985 541.585 52.9062V63.355H551V22.0721H541.585ZM538.712 51.9951C536.778 54.0735 533.962 55.0985 530.293 55.0985C526.424 55.0985 523.523 54.045 521.589 51.9666C519.626 49.8598 518.659 46.7849 518.659 42.7136C518.659 38.6422 519.626 35.5674 521.589 33.4605C523.523 31.3821 526.396 30.3287 530.207 30.3287C534.019 30.3287 536.778 31.3821 538.712 33.5174C540.618 35.6243 541.585 38.7276 541.585 42.799C541.585 46.8703 540.618 49.9452 538.712 51.9951Z" fill="white"/>
<path d="M129.878 47.4398C130.646 50.0876 131.983 53.6465 132.097 56.6644C132.182 57.7463 132.097 58.7998 131.727 59.6824C131.386 60.1664 131.13 60.1948 130.333 60.1948C127.432 59.7678 124.701 58.031 122.113 56.4367C121.942 56.3228 121.8 56.2089 121.629 56.1235C123.706 52.707 124.758 48.2655 124.758 42.799C124.758 35.6528 122.966 30.2149 119.41 26.4852C115.826 22.7839 110.564 20.9049 103.652 20.9049C96.7401 20.9049 91.8192 22.6701 88.2636 26.2005C88.2352 26.115 88.1783 26.0581 88.1214 25.9727C85.4476 21.8729 83.6272 18.4563 82.8023 15.9794H82.7738C82.461 15.0683 82.2618 14.2711 82.2618 13.6163C82.0627 10.0574 86.045 10.3991 95.773 16.378C92.3597 13.2746 84.0538 5.27427 79.8156 10.8546C79.1614 12.2212 78.9907 13.6163 79.076 15.0114C79.2467 17.4599 80.2423 19.8799 81.0387 22.0722C82.2334 24.9193 83.5987 27.7379 85.1916 30.3857C85.9596 31.7808 86.8414 33.1189 87.7801 34.4001C89.1739 36.1938 90.653 37.9305 92.2174 39.6103C97.3944 45.3045 103.311 50.4008 109.739 54.6145C112.612 56.5221 115.57 58.2303 118.614 59.7393C121.174 61.0205 123.791 62.1878 126.465 63.1843C129.594 63.953 131.67 63.7252 132.95 62.8996C136.904 60.3372 133.348 51.8528 129.907 47.4398H129.878ZM113.636 50.6286C106.639 45.6746 99.869 40.2367 94.1801 33.8592C94.4077 33.5175 94.6637 33.2043 94.9197 32.8911C96.8539 30.6419 99.7553 29.5031 103.624 29.5031C107.492 29.5031 110.365 30.6419 112.328 32.8911C114.262 35.1404 115.258 38.443 115.258 42.799C115.258 45.9878 114.717 48.5787 113.636 50.6286Z" fill="white"/>
</g>
<path d="M563.08 2.46H558.9V0H570.16V2.46H565.98V14H563.08V2.46Z" fill="white"/>
<path d="M579.727 11.6L582.447 0H587.067V14H584.167V3.14L581.567 14H577.787L575.267 3.04V14H572.367V0H576.987L579.727 11.6Z" fill="white"/>
<defs>
<clipPath id="clip0_74_463">
<rect width="551" height="81" fill="white" transform="translate(0 2)"/>
</clipPath>
</defs>
</svg>
