<svg width="1130" height="161" viewBox="0 0 1130 161" fill="none" xmlns="http://www.w3.org/2000/svg">
<g clip-path="url(#clip0_426_153)">
<path d="M133.864 45.9602C128.886 42.7846 121.884 41.1968 112.749 41.1968C103.614 41.1968 97.2685 43.1131 92.3454 47.0005C87.4222 50.8879 83.8667 56.9654 81.6239 65.3425C80.0376 57.0749 76.6461 50.9974 71.4495 47.11C66.2528 43.2226 58.6493 41.2515 48.5843 41.2515C40.5432 41.2515 33.979 43.0036 28.8371 46.5625C23.6952 50.1214 20.4131 55.2681 18.9362 62.0573L20.0302 43.4964H0.939453V122.887H19.0456V83.3559C19.0456 74.5956 21.0695 67.6421 25.0627 62.5501C29.0559 57.4582 35.1278 54.9396 43.1689 54.9396C48.9672 54.9396 53.4527 56.0346 56.6254 58.2794C59.7981 60.5243 61.9861 63.6999 63.1896 67.8063C64.393 71.9127 64.9947 77.607 64.9947 84.7795V122.887H82.9367V86.8601C82.9367 76.0739 84.906 68.0253 88.8992 62.8239C92.8377 57.5677 98.9642 54.9396 107.224 54.9396C112.913 54.9396 117.399 56.0346 120.571 58.2794C123.744 60.5243 125.932 63.6999 127.135 67.8063C128.339 71.9127 128.941 77.607 128.941 84.7795V122.887H147.047V84.7795C147.047 74.3218 146.117 65.9995 144.202 59.922C142.288 53.8445 138.841 49.1906 133.864 46.015V45.9602Z" fill="#040507"/>
<path d="M203.881 108.323C202.733 108.487 201.474 108.542 200.216 108.542C192.777 108.542 187.197 106.406 183.478 102.136C180.141 98.3031 178.336 92.9922 177.953 86.1481C172.373 80.1802 167.231 73.7194 162.691 66.6564C162.527 66.3826 162.363 66.0541 162.144 65.7256C160.503 70.8175 159.737 76.676 159.737 83.301C159.737 97.0438 163.183 107.447 170.076 114.51C176.914 121.518 187.033 125.077 200.38 125.077C209.297 125.077 216.791 123.434 222.808 120.204C216.298 116.536 209.953 112.648 203.881 108.323V108.323Z" fill="#040507"/>
<path d="M288.067 105.038L266.788 43.4414H248.736L276.634 122.832H299.335L327.233 43.4414H309.181L288.067 105.038Z" fill="#040507"/>
<path d="M360.436 43.4414H342.33V122.832H360.436V43.4414Z" fill="#040507"/>
<path d="M351.52 10.2617C348.128 10.2617 345.722 10.9735 344.245 12.5066C342.768 13.9849 342.002 16.394 342.002 19.6791C342.002 22.9642 342.713 25.4828 344.245 26.9611C345.722 28.4394 348.183 29.206 351.52 29.206C354.857 29.206 357.154 28.4942 358.576 26.9611C359.999 25.4828 360.71 23.019 360.71 19.6791C360.71 16.3392 359.999 14.0396 358.576 12.5066C357.154 11.0282 354.802 10.2617 351.52 10.2617Z" fill="#040507"/>
<path d="M433.517 11.6855V61.3457C429.907 47.9315 422.139 41.1969 410.214 41.1969C402.392 41.1969 395.773 43.0585 390.303 46.6722C384.888 50.3406 380.785 55.323 377.995 61.5647C375.26 67.8065 373.893 74.8148 373.893 82.6443C373.893 90.4739 375.26 97.6464 377.995 104.107C380.785 110.568 384.888 115.66 390.412 119.438C395.882 123.161 402.501 125.077 410.214 125.077C422.139 125.077 429.907 118.178 433.517 104.49V122.832H451.623V11.6855H433.517ZM428.649 100.986C425.367 104.983 420.553 106.954 414.207 106.954C406.877 106.954 401.353 104.928 397.633 100.932C393.859 96.8799 391.999 91.0214 391.999 83.3013C391.999 75.5813 393.859 69.5038 397.633 65.4521C401.353 61.3457 406.877 59.3199 414.207 59.3199C420.553 59.3199 425.367 61.3457 428.649 65.4521C431.876 69.5038 433.517 75.4718 433.517 83.3013C433.517 91.1309 431.876 97.0441 428.649 100.986V100.986Z" fill="#040507"/>
<path d="M523.939 43.4416V62.9334C522.845 58.827 521.422 55.1586 519.508 52.0925C514.968 44.8652 507.911 41.1968 498.284 41.1968C490.352 41.1968 483.678 42.8941 478.263 46.2887C472.902 49.6834 468.8 54.5015 466.065 60.7433C463.329 66.985 461.962 74.3766 461.962 82.8084C461.962 91.2402 463.275 98.6865 465.955 105.038C468.69 111.389 472.738 116.317 478.208 119.821C483.624 123.325 490.297 125.077 498.119 125.077C507.856 125.077 514.968 121.299 519.508 113.853C521.422 110.732 522.845 106.954 523.939 102.738V122.832H542.045V43.4416H523.939ZM518.414 100.986C514.694 104.983 509.333 106.954 502.222 106.954C495.111 106.954 489.258 104.928 485.484 100.931C481.764 96.8797 479.849 90.9665 479.849 83.1369C479.849 75.3074 481.764 69.3941 485.484 65.3425C489.258 61.3456 494.783 59.3197 502.058 59.3197C509.333 59.3197 514.694 61.3456 518.414 65.452C522.133 69.5036 523.939 75.4716 523.939 83.3012C523.939 91.1307 522.133 97.044 518.414 100.986V100.986Z" fill="#040507"/>
<path d="M614.36 43.4416V61.5098C610.804 47.986 603.037 41.1968 591.057 41.1968C583.235 41.1968 576.616 43.0583 571.146 46.672C565.73 50.3404 561.628 55.3228 558.838 61.5646C556.103 67.8063 554.735 74.8146 554.735 82.6441C554.735 90.4737 556.103 97.6462 558.838 104.107C561.628 110.568 565.73 115.66 571.255 119.438C576.725 123.161 583.344 125.077 591.057 125.077C603.146 125.077 610.968 118.014 614.524 103.943V119.657C614.633 127.486 613.211 133.235 610.202 136.958C607.139 140.681 602.654 142.543 596.637 142.543C590.291 142.543 585.423 141.284 582.086 138.875C578.749 136.411 577.108 132.961 577.108 128.362H559.166C559.166 138.984 562.339 146.978 568.684 152.453C575.03 157.874 584.329 160.611 596.637 160.611C608.944 160.611 617.423 157.217 623.44 150.482C629.457 143.693 632.466 133.399 632.466 119.657V43.4416H614.36ZM609.491 100.986C606.209 104.983 601.396 106.954 595.05 106.954C587.72 106.954 582.195 104.928 578.476 100.931C574.701 96.8797 572.842 91.0212 572.842 83.3012C572.842 75.5811 574.701 69.5036 578.476 65.452C582.195 61.3456 587.72 59.3197 595.05 59.3197C601.396 59.3197 606.209 61.3456 609.491 65.452C612.719 69.5036 614.36 75.4716 614.36 83.3012C614.36 91.1307 612.719 97.044 609.491 100.986V100.986Z" fill="#040507"/>
<path d="M646.743 43.4416V122.832H664.849V86.4768C664.849 80.016 665.779 74.5408 667.639 70.1059C669.499 65.671 672.015 62.3311 675.188 60.0863C678.361 57.8414 682.026 56.7464 686.128 56.7464C688.863 56.7464 691.544 57.2392 694.115 58.2794C696.685 59.265 698.819 60.4695 700.405 61.8383V45.796C697.561 42.7298 693.896 41.1968 689.465 41.1968C682.19 41.1968 676.665 43.4964 672.945 48.0955C669.225 52.6947 666.545 58.0057 664.849 64.0284L665.943 43.3869H646.743V43.4416Z" fill="#040507"/>
<path d="M770.861 4.84131H755.161L746.901 31.9984H755.927L770.861 4.84131Z" fill="#040507"/>
<path d="M767.25 43.4416V62.9334C766.101 58.827 764.679 55.1586 762.765 52.0925C758.224 44.8652 751.168 41.1968 741.54 41.1968C733.609 41.1968 726.935 42.8941 721.52 46.2887C716.159 49.6834 712.056 54.5015 709.321 60.7433C706.586 66.985 705.219 74.3766 705.219 82.8084C705.219 91.2402 706.532 98.6865 709.267 105.038C711.947 111.389 715.995 116.317 721.465 119.821C726.935 123.325 733.554 125.077 741.376 125.077C751.113 125.077 758.224 121.299 762.765 113.853C764.679 110.732 766.101 106.954 767.25 102.738V122.832H785.301V43.4416H767.25ZM761.671 100.986C757.951 104.983 752.59 106.954 745.479 106.954C738.368 106.954 732.515 104.928 728.74 100.931C725.021 96.8797 723.106 90.9665 723.106 83.1369C723.106 75.3074 725.021 69.3941 728.74 65.3425C732.515 61.3456 738.04 59.3197 745.315 59.3197C752.59 59.3197 757.951 61.3456 761.671 65.452C765.39 69.5036 767.25 75.4716 767.25 83.3012C767.25 91.1307 765.39 97.044 761.671 100.986Z" fill="#040507"/>
<path d="M829.391 122.832V60.0864H850.944V44.8653H829.391C829.391 37.9666 829.719 33.4221 830.321 31.2321C830.978 28.9872 832.564 27.6184 835.08 27.0161C837.597 26.4139 842.903 26.1401 850.944 26.1401V11.6855C839.073 11.6855 830.704 12.0688 825.726 12.8901C820.748 13.6566 817.084 15.8467 814.786 19.4056C812.434 22.9645 811.285 29.042 811.285 37.7476V44.8653H799.524V60.0864H811.285V122.832H829.391Z" fill="#040507"/>
<path d="M882.287 12.4519C880.865 10.9736 878.513 10.207 875.231 10.207C871.949 10.207 869.433 10.9188 867.956 12.4519C866.479 13.9302 865.713 16.3393 865.713 19.6244C865.713 22.9095 866.424 25.4281 867.956 26.9064C869.433 28.3847 871.894 29.1513 875.231 29.1513C878.568 29.1513 880.865 28.4395 882.287 26.9064C883.71 25.4281 884.421 22.9643 884.421 19.6244C884.421 16.2845 883.71 13.9849 882.287 12.4519V12.4519Z" fill="#040507"/>
<path d="M884.147 43.4414H866.041V122.832H884.147V43.4414Z" fill="#040507"/>
<path d="M938.356 57.2391C944.483 57.2391 949.57 58.2794 953.672 60.36C957.72 62.4405 960.729 65.4519 962.643 69.5036L974.842 62.0573C971.669 55.268 966.965 50.1213 960.784 46.5624C954.602 43.0035 947.108 41.2515 938.356 41.2515C924.899 41.2515 914.78 44.7556 907.887 51.8186C900.995 58.8817 897.604 69.2846 897.604 83.0273C897.604 96.7701 900.995 107.392 907.833 114.455C914.67 121.573 924.845 125.077 938.356 125.077C947.108 125.077 954.602 123.325 960.784 119.766C966.965 116.207 971.669 111.006 974.842 104.107L962.479 96.9891C960.674 100.877 957.72 103.888 953.672 105.968C949.624 108.049 944.483 109.089 938.356 109.089C930.205 109.089 924.079 106.954 920.031 102.738C915.983 98.5222 913.904 91.8972 913.904 82.9178C913.904 74.8693 915.983 68.5728 920.195 64.0831C924.352 59.5934 930.424 57.3486 938.356 57.3486V57.2391Z" fill="#040507"/>
<path d="M1042.45 43.4416V62.9334C1041.36 58.827 1039.94 55.1586 1038.02 52.0925C1033.48 44.8652 1026.37 41.1968 1016.74 41.1968C1008.81 41.1968 1002.14 42.8941 996.777 46.2887C991.361 49.6834 987.313 54.5015 984.578 60.7433C981.788 66.985 980.421 74.3766 980.421 82.8084C980.421 91.2402 981.788 98.6865 984.469 105.038C987.149 111.389 991.252 116.317 996.667 119.821C1002.14 123.325 1008.76 125.077 1016.58 125.077C1026.32 125.077 1033.48 121.299 1038.02 113.853C1039.94 110.732 1041.36 106.954 1042.45 102.738V122.832H1060.56V43.4416H1042.45ZM1036.93 100.986C1033.21 104.983 1027.79 106.954 1020.74 106.954C1013.3 106.954 1007.72 104.928 1004 100.931C1000.22 96.8797 998.363 90.9665 998.363 83.1369C998.363 75.3074 1000.22 69.3941 1004 65.3425C1007.72 61.3456 1013.24 59.3197 1020.57 59.3197C1027.9 59.3197 1033.21 61.3456 1036.93 65.452C1040.59 69.5036 1042.45 75.4716 1042.45 83.3012C1042.45 91.1307 1040.59 97.044 1036.93 100.986V100.986Z" fill="#040507"/>
<path d="M250.705 92.2255C252.182 97.3174 254.753 104.161 254.972 109.965C255.136 112.046 254.972 114.072 254.261 115.769C253.605 116.7 253.112 116.754 251.581 116.754C246.001 115.933 240.75 112.593 235.772 109.527C235.444 109.308 235.17 109.089 234.842 108.925C238.835 102.355 240.859 93.8133 240.859 83.3009C240.859 69.5581 237.413 59.1005 230.575 51.9279C223.683 44.8101 213.563 41.1965 200.271 41.1965C186.978 41.1965 177.515 44.5911 170.677 51.3804C170.623 51.2161 170.513 51.1066 170.404 50.9424C165.262 43.0581 161.761 36.4878 160.175 31.7244H160.12C159.518 29.9723 159.135 28.4393 159.135 27.18C158.753 20.3359 166.411 20.993 185.119 32.4909C178.554 26.5229 162.582 11.1376 154.431 21.869C153.173 24.4971 152.845 27.18 153.009 29.8628C153.337 34.5715 155.252 39.2254 156.783 43.4413C159.081 48.9166 161.706 54.337 164.77 59.429C166.247 62.1118 167.942 64.6852 169.748 67.149C172.428 70.5984 175.272 73.9383 178.281 77.1687C188.237 88.1191 199.614 97.9197 211.977 106.023C217.502 109.691 223.191 112.977 229.044 115.878C233.967 118.342 238.999 120.587 244.141 122.503C250.158 123.982 254.152 123.544 256.613 121.956C264.217 117.028 257.379 100.712 250.76 92.2255H250.705ZM219.471 98.3577C206.015 88.8309 192.996 78.3732 182.055 66.1087C182.493 65.4517 182.985 64.8494 183.478 64.2472C187.197 59.9217 192.777 57.7316 200.216 57.7316C207.656 57.7316 213.18 59.9217 216.955 64.2472C220.674 68.5726 222.589 74.9238 222.589 83.3009C222.589 89.4331 221.55 94.4156 219.471 98.3577V98.3577Z" fill="#040507"/>
</g>
<path d="M1083.79 5.72737H1075.75V0.996582H1097.4V5.72737H1089.37V27.9198H1083.79V5.72737Z" fill="#040507"/>
<path d="M1115.8 23.3044L1121.03 0.996582H1129.92V27.9198H1124.34V7.03507L1119.34 27.9198H1112.07L1107.22 6.84276V27.9198H1101.65V0.996582H1110.53L1115.8 23.3044Z" fill="#040507"/>
<defs>
<clipPath id="clip0_426_153">
<rect width="1059.62" height="155.77" fill="white" transform="translate(0.939453 4.84131)"/>
</clipPath>
</defs>
</svg>
