<svg width="23" height="23" viewBox="0 0 23 23" fill="none" xmlns="http://www.w3.org/2000/svg">
<path d="M11.0508 21.4355C16.5736 21.4355 21.0508 16.9584 21.0508 11.4355C21.0508 5.9127 16.5736 1.43555 11.0508 1.43555C5.52793 1.43555 1.05078 5.9127 1.05078 11.4355C1.05078 16.9584 5.52793 21.4355 11.0508 21.4355Z" stroke="#FF33BB" stroke-width="2" stroke-linecap="round" stroke-linejoin="round"/>
<path d="M11.0508 17.4355C14.3645 17.4355 17.0508 14.7493 17.0508 11.4355C17.0508 8.12184 14.3645 5.43555 11.0508 5.43555C7.73707 5.43555 5.05078 8.12184 5.05078 11.4355C5.05078 14.7493 7.73707 17.4355 11.0508 17.4355Z" stroke="#FF33BB" stroke-width="2" stroke-linecap="round" stroke-linejoin="round"/>
<path d="M11.0508 13.4355C12.1554 13.4355 13.0508 12.5401 13.0508 11.4355C13.0508 10.331 12.1554 9.43555 11.0508 9.43555C9.94621 9.43555 9.05078 10.331 9.05078 11.4355C9.05078 12.5401 9.94621 13.4355 11.0508 13.4355Z" stroke="#FF33BB" stroke-width="2" stroke-linecap="round" stroke-linejoin="round"/>
</svg>
