<svg width="24" height="21" viewBox="0 0 24 21" fill="none" xmlns="http://www.w3.org/2000/svg">
<path d="M17 19.3574V17.3574C17 16.2966 16.5786 15.2791 15.8284 14.529C15.0783 13.7789 14.0609 13.3574 13 13.3574H5C3.93913 13.3574 2.92172 13.7789 2.17157 14.529C1.42143 15.2791 1 16.2966 1 17.3574V19.3574" stroke="#FF33BB" stroke-width="2" stroke-linecap="round" stroke-linejoin="round"/>
<path d="M9 9.35742C11.2091 9.35742 13 7.56656 13 5.35742C13 3.14828 11.2091 1.35742 9 1.35742C6.79086 1.35742 5 3.14828 5 5.35742C5 7.56656 6.79086 9.35742 9 9.35742Z" stroke="#FF33BB" stroke-width="2" stroke-linecap="round" stroke-linejoin="round"/>
<path d="M23 19.3573V17.3573C22.9993 16.471 22.7044 15.6101 22.1614 14.9096C21.6184 14.2092 20.8581 13.7089 20 13.4873" stroke="#FF33BB" stroke-width="2" stroke-linecap="round" stroke-linejoin="round"/>
<path d="M16 1.4873C16.8604 1.70761 17.623 2.20801 18.1676 2.90962C18.7122 3.61122 19.0078 4.47413 19.0078 5.3623C19.0078 6.25047 18.7122 7.11338 18.1676 7.81499C17.623 8.5166 16.8604 9.017 16 9.2373" stroke="#FF33BB" stroke-width="2" stroke-linecap="round" stroke-linejoin="round"/>
</svg>
